<svg xmlns="http://www.w3.org/2000/svg" width="312.241" height="100" viewBox="0 0 312.24124 100"><g fill="#998677"><path d="M143.09 60.71h-2.904V48.957h-13.153V60.71h-2.904V35.735h2.904V46.36h13.153V35.735h2.904V60.71zm14.332.341c-2.767 0-4.95-.841-6.55-2.527-1.6-1.686-2.4-4.026-2.4-7.02 0-3.02.742-5.416 2.228-7.193 1.487-1.777 3.482-2.665 5.988-2.665 2.346 0 4.202.771 5.569 2.315 1.366 1.543 2.05 3.579 2.05 6.106v1.794h-12.898c.057 2.199.612 3.867 1.666 5.006 1.053 1.139 2.537 1.709 4.45 1.709 2.015 0 4.008-.422 5.978-1.265v2.528c-1.002.433-1.95.743-2.844.931-.894.189-1.973.281-3.237.281zm-.768-17.03c-1.504 0-2.702.49-3.596 1.469-.894.98-1.42 2.335-1.58 4.066h9.788c0-1.788-.399-3.158-1.195-4.108-.798-.951-1.937-1.427-3.417-1.427zm24 16.689l-.563-2.665h-.137c-.934 1.174-1.865 1.968-2.793 2.383-.928.416-2.087.623-3.476.623-1.857 0-3.311-.477-4.365-1.435-1.054-.956-1.58-2.317-1.58-4.082 0-3.78 3.023-5.763 9.07-5.944l3.178-.104v-1.16c0-1.47-.316-2.555-.948-3.255-.632-.7-1.643-1.05-3.032-1.05-1.56 0-3.326.478-5.295 1.435l-.872-2.17c.922-.5 1.933-.894 3.032-1.178a13.14 13.14 0 0 1 3.305-.428c2.232 0 3.887.495 4.963 1.487 1.076.99 1.614 2.579 1.614 4.766V60.71h-2.1zm-6.405-1.998c1.765 0 3.151-.484 4.159-1.452s1.512-2.324 1.512-4.067v-1.69l-2.836.119c-2.254.08-3.88.43-4.877 1.05-.996.622-1.494 1.587-1.494 2.897 0 1.024.31 1.805.93 2.34.621.535 1.49.803 2.606.803zm17.185 1.998h-2.836V34.13h2.836v26.58zm12.06-1.998c.5 0 .984-.037 1.452-.11a9.38 9.38 0 0 0 1.11-.232v2.17c-.307.148-.76.27-1.358.367-.598.097-1.135.145-1.614.145-3.622 0-5.432-1.908-5.432-5.723V44.192h-2.682v-1.367l2.682-1.178 1.195-3.997h1.64v4.338h5.432v2.204h-5.432v11.017c0 1.128.267 1.994.803 2.597.535.605 1.27.906 2.204.906zm19.116 1.998V48.599c0-1.527-.348-2.665-1.043-3.417-.694-.752-1.782-1.127-3.263-1.127-1.97 0-3.408.535-4.313 1.606-.905 1.07-1.358 2.823-1.358 5.261v9.788h-2.835V34.13h2.835v8.045c0 .968-.045 1.771-.136 2.408h.17c.558-.899 1.353-1.608 2.383-2.125 1.03-.52 2.206-.778 3.528-.778 2.288 0 4.006.544 5.15 1.632 1.144 1.087 1.717 2.816 1.717 5.184V60.71h-2.836zm5.688-18.722h3.04l4.1 10.676c.9 2.438 1.458 4.196 1.675 5.278h.136c.148-.58.459-1.574.932-2.981.472-1.406 2.018-5.731 4.637-12.974h3.041l-8.045 21.32c-.798 2.106-1.729 3.6-2.793 4.484-1.065.882-2.372 1.324-3.92 1.324-.866 0-1.72-.097-2.563-.292v-2.272a9.893 9.893 0 0 0 2.101.206c1.948 0 3.337-1.094 4.168-3.28l1.042-2.665-7.55-18.824zm20.294 18.722V35.735h6.747v19.526h9.617v5.449h-16.364zm19.833-24.171c0-1.002.278-1.748.837-2.238.557-.49 1.457-.735 2.699-.735 1.242 0 2.146.251 2.716.753.57.5.854 1.24.854 2.22 0 1.959-1.19 2.938-3.57 2.938-2.358 0-3.536-.98-3.536-2.938zm6.85 24.17h-6.68V41.357h6.68V60.71zm16.484-14.349h-4.117v14.35h-6.679V46.36h-2.562v-3.279l2.699-1.64v-.325c0-2.55.521-4.384 1.563-5.5 1.042-1.116 2.713-1.674 5.014-1.674.888 0 1.728.069 2.52.205.791.136 1.71.376 2.758.717l-1.435 4.322a8.963 8.963 0 0 0-2.408-.34c-.513 0-.886.156-1.119.468-.233.314-.35.823-.35 1.53v.512h4.116v5.005zm11.975 14.691c-3.223 0-5.726-.856-7.508-2.57s-2.673-4.154-2.673-7.32c0-3.269.826-5.777 2.477-7.524 1.651-1.749 4.008-2.622 7.072-2.622 2.915 0 5.167.76 6.756 2.28 1.589 1.52 2.383 3.71 2.383 6.568v2.973h-11.94c.045 1.081.44 1.93 1.187 2.544.745.615 1.762.923 3.048.923 1.174 0 2.253-.11 3.238-.333.985-.222 2.053-.6 3.203-1.136v4.8a11.77 11.77 0 0 1-3.245 1.11c-1.117.206-2.45.307-3.998.307zm-.393-15.492c-.786 0-1.443.247-1.973.743-.53.495-.84 1.273-.931 2.33h5.74c-.023-.932-.288-1.679-.795-2.236-.507-.559-1.187-.837-2.04-.837z"/><g transform="translate(-149.495 -296.035) scale(.48207)"><path d="M414.553 645.225s-11.732 35.197 0 64.67c11.732 29.475 36.055 75.258 26.04 101.01 0 0 32.334-33.193 19.744-71.822-12.591-38.632-34.624-45.499-45.784-93.858zm68.103 19.888c-.515 25.088-13.4 36.512-24.166 46.602 3.94 6.904 7.661 14.734 10.824 24.441a69.012 69.012 0 0 1 2.797 12.24c7.97-8.384 30.545-43.841 10.545-83.283z"/><path d="M427.999 817.236s1.112 0 3.793-9.754c4.996-18.176-7.94-51.801-18.726-76.795l-1.697-3.938a92.7 92.7 0 0 1-2.084-4.873 418.782 418.782 0 0 1-3.506-8.49c-4.296-10.791-5.798-22.137-5.878-32.521-31.882 56.328 2.405 101.783 15.51 115.445 7.456 7.774 12.841 16.991 12.588 20.926z"/><circle r="11.379" cy="712.256" cx="366.843"/><circle r="12.018" cy="680.994" cx="453.176"/><path d="M380.053 750.975c-31.677-16.732-38.163-38.719-38.163-38.719.222 6.957.999 13.41 2.232 19.398 4.358 17.338 16.882 42.053 52.266 55.82-6.107-9.122-12.705-21.57-16.335-36.499z"/><path d="M418.537 817.234c-.404-2.146-3.975-8.166-9.94-14.385a100.784 100.784 0 0 1-5.032-5.697c-47.128-3.832-84.181-43.289-84.181-91.404 0-35.889 20.618-66.959 50.653-82.023-35.396 16.518-59.928 52.42-59.928 94.057 0 57.299 46.449 103.746 103.747 103.746 1.479 0 2.948-.037 4.412-.1-.001 0 1.078.099.269-4.194zm-1.478-203.144l.034.146c47.856 3.088 85.717 42.875 85.717 91.512 0 28.035-12.583 53.127-32.404 69.949-4.925 19.523-16.371 34.203-21.049 39.596 39.813-14.498 68.245-52.684 68.245-97.512 0-56.224-44.728-101.998-100.543-103.691z"/></g></g></svg>