<svg xmlns="http://www.w3.org/2000/svg" width="167.024" height="100" viewBox="0 0 167.02417 100"><g fill="#998677"><path d="M0 99.738h6.143c3.858 0 6.03-1.349 6.03-4.12 0-1.424-.749-2.623-2.172-3.11 1.049-.524 1.573-1.424 1.573-2.66 0-2.434-2.06-3.745-5.693-3.745H0v13.635zm7.566-4.158c0 .86-.599 1.498-1.798 1.498H4.345v-3.035h1.423c1.2 0 1.798.638 1.798 1.537zm-.337-5.469c0 .786-.487 1.311-1.498 1.311H4.345V88.8h1.386c1.011 0 1.498.524 1.498 1.311zM20.527 100c3.932 0 6.48-1.948 6.48-5.957v-7.94h-4.495v8.015c0 1.837-.637 2.697-1.985 2.697-1.349 0-1.948-.86-1.948-2.697v-8.015h-4.532v7.94c0 4.009 2.546 5.957 6.48 5.957zm8.503-9.814c0 2.06 1.236 3.333 3.783 4.158 2.097.636 2.584.972 2.584 1.573 0 .673-.674.935-1.835.935-1.46 0-3.034-.486-4.195-1.272l-.262 3.333c1.386.711 3.222 1.087 5.056 1.087 3.934 0 5.77-1.61 5.77-4.233 0-2.098-1.2-3.447-3.821-4.27-2.061-.637-2.548-1.012-2.548-1.574 0-.487.524-.898 1.835-.898 1.125 0 2.36.299 3.559.823l.263-3.258c-1.274-.45-2.772-.712-4.309-.712-3.895 0-5.88 1.648-5.88 4.308zm12.923-4.083v13.635h4.494V86.103h-4.494zm7.117 13.635h3.97v-8.054l4.383 8.054h4.794V86.103h-3.97v8.09l-4.383-8.09H49.07v13.635zm15.695 0h10.563v-2.96H69.26v-2.434h5.468v-2.96H69.26v-2.285h5.88v-2.997H64.764v13.636zm12.06-9.552c0 2.06 1.237 3.333 3.784 4.158 2.135.636 2.584.972 2.584 1.573 0 .673-.673.935-1.835.935-1.46 0-2.996-.486-4.195-1.272l-.262 3.333c1.386.711 3.221 1.087 5.057 1.087 3.932 0 5.768-1.61 5.768-4.233 0-2.098-1.198-3.447-3.82-4.27-2.06-.637-2.548-1.012-2.548-1.574 0-.487.525-.898 1.835-.898 1.125 0 2.36.299 3.56.823l.261-3.258c-1.273-.45-2.772-.712-4.307-.712-3.858 0-5.881 1.648-5.881 4.308zm12.062 0c0 2.06 1.237 3.333 3.784 4.158 2.097.636 2.585.972 2.585 1.573 0 .673-.676.935-1.875.935-1.422 0-2.996-.486-4.156-1.272l-.3 3.333c1.423.711 3.259 1.087 5.094 1.087 3.933 0 5.768-1.61 5.768-4.233 0-2.098-1.198-3.447-3.82-4.27-2.098-.637-2.547-1.012-2.547-1.574 0-.487.487-.898 1.836-.898 1.124 0 2.36.299 3.52.823l.3-3.258c-1.273-.45-2.771-.712-4.308-.712-3.895 0-5.881 1.648-5.881 4.308zm18.655 9.552h3.97v-8.054l4.383 8.054h4.794V86.103h-3.97v8.09l-4.384-8.09h-4.793v13.635zm24.347 0h4.682l-4.158-13.635h-6.255l-4.157 13.635h4.681l.6-2.548h3.972l.635 2.548zm-2.622-10.526l1.236 4.83h-2.435l1.199-4.83zm14.76 6.518h3.744l2.21-4.459v8.467h3.971V86.103h-4.945l-3.109 6.03-3.07-6.03h-4.946v13.635h3.971v-8.467l2.173 4.459zm12.472 4.008h10.525v-2.96h-6.03v-2.434h5.469v-2.96h-5.47v-2.285h5.882v-2.997h-10.376v13.636z"/><path d="M83.268 35.622c34.312 0 64.426 15.357 81.393 38.506-18.803-19.366-48.28-31.839-81.393-31.839-33.148 0-62.59 12.473-81.393 31.839 16.93-23.15 47.046-38.506 81.393-38.506z" clip-rule="evenodd" fill-rule="evenodd"/><path d="M96.266 67.91h23.373l-8.278-27.044a144.168 144.168 0 0 0-22.4-2.622l.339 1.348H77.238l.337-1.348a144.19 144.19 0 0 0-22.4 2.622l-8.277 27.043h23.373l3.108-12.81h19.703l3.184 12.81zm13.26-32.925L98.776 0H67.723l-10.75 34.985a124.289 124.289 0 0 1 22.062-2.66l4.232-17.005 4.195 17.005a123.47 123.47 0 0 1 22.063 2.66z" clip-rule="evenodd" fill-rule="evenodd"/></g></svg>