<svg xmlns="http://www.w3.org/2000/svg" width="236.54" height="100" viewBox="0 0 236.53976 100"><path d="M115.173 57.298v2.5h-4.145a29.88 29.88 0 0 1-1.832-.043c-.445-.029-1-.142-1.661-.34-.663-.2-1.221-.498-1.676-.895a4.445 4.445 0 0 1-1.363-2.314c-.208-.9-.312-1.955-.312-3.167V39.92h2.669v13.063c0 1.099.123 1.96.37 2.584.491 1.155 1.523 1.732 3.095 1.732h4.855zM129.06 39.92h2.669v13.63c0 2.253-.582 3.904-1.747 4.955-1.164 1.05-2.92 1.576-5.267 1.576-2.348 0-4.1-.525-5.254-1.576-1.155-1.05-1.732-2.702-1.732-4.955V39.92h2.67v14c0 1.287.392 2.22 1.178 2.796.785.578 1.821.867 3.109.867 1.324 0 2.385-.29 3.18-.867.795-.577 1.193-1.51 1.193-2.797v-14zm5.792.34v-.34h2.67v.34c0 3.787 1.334 6.446 4.003 7.98 1.495-.833 2.542-1.912 3.138-3.237.597-1.325.895-2.906.895-4.742v-.341h2.725v.596c0 3.938-1.458 6.9-4.373 8.888 2.915 2.026 4.373 4.989 4.373 8.888v1.505h-2.725v-1.25c0-1.836-.298-3.417-.895-4.742-.596-1.324-1.643-2.404-3.138-3.237-2.669 1.534-4.004 4.194-4.004 7.98v1.25h-2.669v-1.25c0-4.051 1.457-7.1 4.373-9.144-2.916-2.006-4.373-5.055-4.373-9.144zm27.856 19.537h-11.301V44.661c0-1.4.444-2.527 1.334-3.379.606-.568 1.287-.937 2.045-1.107.757-.17 1.685-.256 2.783-.256h5.14v2.5h-5.51c-2.082 0-3.123.87-3.123 2.612v3.237h6.56v2.499h-6.56v6.53h8.632v2.5zm13.29-19.877v2.498h-5.026c-1.912 0-2.869.777-2.869 2.329 0 .833.421 1.538 1.264 2.116.842.577 1.983 1.131 3.422 1.661.644.247 1.193.497 1.647.753.454.255.909.591 1.363 1.008.455.417.795.951 1.022 1.604.227.653.341 1.406.341 2.258 0 .947-.2 1.794-.596 2.541-.398.748-.909 1.335-1.534 1.76a7.757 7.757 0 0 1-1.917.966 6.674 6.674 0 0 1-1.916.355c-.266.02-.644.028-1.137.028h-4.43v-2.499h4.345c1.287 0 2.338-.269 3.152-.808.814-.54 1.22-1.33 1.22-2.372 0-.51-.112-.96-.34-1.349a3.097 3.097 0 0 0-.979-1.007 10.1 10.1 0 0 0-1.306-.74 19.993 19.993 0 0 0-1.604-.653 7.031 7.031 0 0 1-.398-.142c-2.973-1.135-4.458-2.99-4.458-5.565 0-1.59.51-2.778 1.533-3.564 1.022-.785 2.357-1.178 4.004-1.178h5.197zm3.01 2.498V39.92h12.495v2.5h-4.912v17.378h-2.67v-17.38h-4.913zm17.436 17.379h-2.528V47.302c0-2.044.658-3.786 1.974-5.225 1.315-1.438 3.015-2.158 5.097-2.158h6.503v19.877h-2.67V42.418h-3.833c-1.383 0-2.484.407-3.309 1.22-.823.815-1.235 2.112-1.235 3.891v2.414c1.06-1.116 2.574-1.675 4.544-1.675h2.584v2.499h-2.584c-1.098 0-1.993.133-2.684.397-.691.265-1.31.72-1.86 1.364v7.269zm13.743-17.379V39.92h12.495v2.5h-4.912v17.378h-2.67v-17.38h-4.913zm26.353 17.379h-11.303V44.661c0-1.4.445-2.527 1.335-3.379.605-.568 1.287-.937 2.045-1.107.756-.17 1.684-.256 2.783-.256h5.14v2.5h-5.51c-2.083 0-3.124.87-3.124 2.612v3.237h6.56v2.499h-6.56v6.53h8.633v2.5zM43.302 0L0 25v50l43.302 25 43.301-25V25l-43.3-25zm37.923 28.105v40.683l-7.686-4.438V32.544L43.303 15.089 15.757 30.99 8.07 26.553l35.232-20.34 37.922 21.892zM5.38 45.758l60.086 35.233-8.796 5.08L5.38 56.604V45.758zm0-6.238v-8.309l73.153 42.235-7.707 4.45L5.38 39.52zm62.78 21.723l-7.686-4.437V40.087l-17.17-9.911-14.48 8.358-7.687-4.438 22.167-12.795L68.16 35.65v25.593zm-13.068-7.542l-20.888-12.06 9.1-5.255 11.788 6.807V53.7zM5.381 71.894V62.81l45.9 26.37-7.979 4.61L5.38 71.894z" fill="#998677"/></svg>