<svg xmlns="http://www.w3.org/2000/svg" width="165.153" height="100" viewBox="0 0 165.15314 100"><g fill="#9a8777"><path d="M44.379.27c-2.212-3.234-1.544 23.452 7.157 32.59 4.255 4.445 11.245 11.142 20.509 13.333-1.733-14-11.664-27.228-24.474-31.484 16.169 3.693 29.397 20.113 29.085 36.262.209 6.677 1.043 16.4 1.481 13.208C85.94 6.174 59.255 22.177 44.38.27z"/><path d="M45.818 28.082c-5.925-6.677-17.547-16.212-33.987-10.536C3.84 20.3 24.89 12.768 41.77 33.152c4.715 5.696 9.139 15.795 29.94 15.628-19.716-8.47-19.237-13.207-25.893-20.698zm72.002-.25c5.926-6.677 17.547-16.212 33.987-10.537 7.99 2.754-13.06-4.777-29.94 15.607-4.715 5.696-9.138 15.795-29.94 15.607 19.717-8.45 19.237-13.186 25.893-20.677z"/><path d="M119.051.27c2.192-3.234 1.544 23.452-7.177 32.59-4.236 4.445-11.246 11.142-20.51 13.333 1.733-13.98 11.664-27.228 24.495-31.484-16.19 3.693-29.418 20.113-29.104 36.262-.105 6.468-1.022 16.4-1.461 13.208C77.469 6.174 104.154 22.177 119.05.27zM87.213 16.023a5.405 5.405 0 0 1-5.403 5.404c-2.964 0-5.384-2.42-5.384-5.404s2.42-5.404 5.384-5.404a5.405 5.405 0 0 1 5.403 5.404zM19.907 96.475c-.779 1.109-2 1.973-3.662 2.593-1.661.621-3.522.932-5.58.932-2.081 0-3.932-.5-5.551-1.498-1.62-.998-2.874-2.41-3.763-4.237C.462 92.44.011 90.345 0 87.983v-3.36c0-3.69.932-6.602 2.794-8.739 1.863-2.137 4.365-3.205 7.506-3.205 2.74 0 4.943.697 6.612 2.09 1.668 1.396 2.66 3.316 2.976 5.763h-2.246c-.328-1.954-1.123-3.435-2.383-4.442-1.26-1.008-2.907-1.512-4.94-1.512-2.484 0-4.45.884-5.899 2.65-1.449 1.768-2.173 4.26-2.173 7.476v3.144c0 2.022.343 3.811 1.032 5.364.687 1.554 1.674 2.758 2.958 3.61 1.285.853 2.761 1.28 4.43 1.28 1.935 0 3.597-.305 4.985-.914.9-.402 1.57-.87 2.009-1.406v-6.867H10.52v-1.9h9.387v9.46zm14.994-14.739a8.195 8.195 0 0 0-1.479-.127c-1.364 0-2.517.38-3.46 1.141-.944.761-1.617 1.866-2.019 3.315v13.57H25.77V79.872h2.137l.036 3.142c1.157-2.338 3.014-3.507 5.57-3.507.61 0 1.09.08 1.443.238l-.055 1.99zM45.658 100c-1.68 0-3.2-.414-4.557-1.242-1.358-.828-2.414-1.981-3.168-3.461-.755-1.48-1.132-3.138-1.132-4.977v-.785c0-1.899.367-3.61 1.104-5.132.737-1.522 1.763-2.718 3.077-3.589 1.315-.87 2.74-1.305 4.274-1.305 2.399 0 4.301.819 5.707 2.456 1.406 1.638 2.11 3.875 2.11 6.712V89.9h-14.1v.42c0 2.24.643 4.107 1.927 5.598 1.285 1.491 2.901 2.237 4.85 2.237 1.168 0 2.2-.213 3.095-.639.894-.426 1.708-1.108 2.438-2.045l1.37 1.04c-1.609 2.327-3.94 3.489-6.996 3.489zm-.402-18.628c-1.644 0-3.028.602-4.155 1.808-1.126 1.205-1.81 2.825-2.054 4.858h11.852V87.8c-.06-1.9-.602-3.445-1.625-4.638-1.023-1.193-2.362-1.79-4.018-1.79zM64.98 100c-1.68 0-3.199-.414-4.556-1.242-1.358-.828-2.414-1.981-3.169-3.461-.755-1.48-1.132-3.138-1.132-4.977v-.785c0-1.899.368-3.61 1.105-5.132.736-1.522 1.762-2.718 3.077-3.589 1.315-.87 2.74-1.305 4.274-1.305 2.398 0 4.3.819 5.707 2.456 1.406 1.638 2.11 3.875 2.11 6.712V89.9h-14.1v.42c0 2.24.642 4.107 1.927 5.598 1.284 1.491 2.9 2.237 4.849 2.237 1.168 0 2.2-.213 3.095-.639.895-.426 1.708-1.108 2.438-2.045l1.37 1.04C70.368 98.838 68.036 100 64.98 100zm-.401-18.628c-1.644 0-3.029.602-4.155 1.808-1.127 1.205-1.812 2.825-2.055 4.858h11.853V87.8c-.061-1.9-.603-3.445-1.626-4.638-1.022-1.193-2.362-1.79-4.017-1.79zm14.153-1.498l.074 3.379c.742-1.218 1.667-2.146 2.775-2.785 1.108-.639 2.331-.959 3.67-.959 2.12 0 3.696.597 4.731 1.79 1.035 1.193 1.558 2.983 1.57 5.37v12.966H89.38V86.65c-.013-1.765-.387-3.08-1.124-3.945-.736-.864-1.915-1.296-3.534-1.296a5.53 5.53 0 0 0-3.588 1.268c-1.041.847-1.811 1.989-2.31 3.425v13.533H76.65V79.874h2.081zm32.234 16.035h12.073v3.725h-16.693v-26.59h4.62v22.865zm15.195-21.185c0-.687.217-1.257.649-1.712.432-.454 1.05-.68 1.853-.68.805 0 1.425.226 1.863.68.439.455.658 1.025.658 1.712 0 .675-.22 1.236-.658 1.684-.438.448-1.058.672-1.863.672-.803 0-1.421-.224-1.853-.672-.432-.448-.649-1.009-.649-1.684zm4.712 24.91h-4.437v-19.76h4.437v19.76zm6.393.001V83.162h-3.014v-3.288h3.014v-1.808c0-2.191.609-3.883 1.826-5.078 1.217-1.192 2.922-1.79 5.113-1.79.78 0 1.608.11 2.484.33l-.11 3.47a8.75 8.75 0 0 0-1.697-.147c-2.119 0-3.178 1.09-3.178 3.27v1.752h4.018v3.288h-4.018v16.473h-4.438zm19.961.365c-2.813 0-5.093-.886-6.84-2.657-1.747-1.772-2.62-4.13-2.62-7.077v-.548c0-1.972.38-3.735 1.14-5.287.762-1.553 1.83-2.761 3.206-3.626 1.376-.864 2.91-1.296 4.602-1.296 2.691 0 4.77.858 6.237 2.575 1.468 1.717 2.201 4.145 2.201 7.286v1.79h-12.912c.135 1.632.679 2.922 1.635 3.872.956.95 2.158 1.425 3.607 1.425 2.033 0 3.688-.822 4.967-2.466l2.392 2.283c-.791 1.181-1.847 2.097-3.168 2.748-1.322.652-2.803.978-4.447.978zm-.53-16.93c-1.217 0-2.2.426-2.949 1.279-.749.852-1.227 2.04-1.433 3.561h8.455v-.329c-.098-1.484-.493-2.607-1.187-3.37-.695-.76-1.656-1.14-2.886-1.14z"/></g></svg>