<svg xmlns="http://www.w3.org/2000/svg" width="115.709" height="100" viewBox="0 0 115.70927 99.999997"><g fill="#998677"><path d="M14.308 97.506C12.691 99.209 10.602 100 8.334 100 2.494 100 .022 95.708 0 91.342c-.022-4.388 2.65-8.848 8.334-8.848 2.134 0 4.155.863 5.773 2.566l-1.977 2.038c-1.033-1.079-2.426-1.583-3.796-1.583-3.796 0-5.436 3.022-5.414 5.827.023 2.782 1.528 5.684 5.414 5.684 1.37 0 2.92-.6 3.953-1.702l2.021 2.182zm17.118-6.188C31.38 95.66 28.888 100 23.362 100c-5.527 0-8.086-4.245-8.086-8.658 0-4.412 2.65-8.848 8.086-8.848 5.413 0 8.109 4.436 8.064 8.824zm-13.23.073c.067 2.758 1.46 5.707 5.166 5.707 3.706 0 5.099-2.973 5.144-5.731.044-2.83-1.438-5.996-5.144-5.996-3.707 0-5.234 3.19-5.166 6.02zm29.111-3.934l-5.12 7.29h-.585l-5.009-7.314V99.64h-2.965V82.853h3.413l4.92 7.218 4.919-7.218h3.392V99.64h-2.965V87.457zm13.164 7.22h-4.446v4.94H53.06V82.83c2.47 0 4.94-.024 7.411-.024 7.683 0 7.705 11.87 0 11.87zm-4.446-2.903h4.446c3.796 0 3.775-5.947 0-5.947h-4.446v5.947zm23.383 4.676h-8.222l-1.348 3.167h-3.211l7.053-16.788h3.234l7.054 16.787h-3.235l-1.325-3.166zm-4.11-10.095l-2.92 7.146h5.84l-2.92-7.146zm20.351-3.55h2.965v16.81h-1.842v.025l-8.266-11.343v11.319h-2.965V82.829h2.403l7.705 10.408V82.805zm12.31 6.955l4.178-6.93h3.572v.143l-6.267 9.714v6.929h-2.965v-6.93l-6.042-9.713v-.143h3.526l3.998 6.93z"/><path d="M42.32 60.296c-2.069 0-3.822 0-4.02.055h-1.049c-12.158 0-22.014-10.519-22.014-23.502 0-11.869 7.744-21.281 18.447-22.875.176-.056 5.165.055 10.122.144L67.3 74.351h13.234L52.448 1.09l-.072-.744C52.131.4 32.9-.026 32.657 0 15.19 2.167 2.127 17.622 2.127 36.85c0 20.714 15.726 37.502 35.124 37.502.601 0 1.198-.055 1.79-.055h8.954l.013.055H61.24L40.363 21.505H26.634L42.321 60.29zm49.097-45.784H63.529L58.111.384H87.86V.328h.339c14.02 0 25.385 12.135 25.385 27.102 0 13.461-9.195 24.63-21.244 26.74l7.738 20.181H86.844L73.842 41.025H90.43c6.043-1.033 10.663-6.62 10.663-13.367 0-6.37-4.124-11.708-9.676-13.151z" clip-rule="evenodd" fill-rule="evenodd"/></g></svg>