<svg xmlns="http://www.w3.org/2000/svg" width="109.258" height="100" viewBox="0 0 109.2585 100"><g fill="#998677"><path d="M76.178 7.745L43.475 64.821h20.956L76.26 44.279l11.828 20.542h20.956z"/><path d="M71.8 64.186l4.459 7.745 4.46-7.745-4.46-7.745zM44.827 7.745L33 28.287 21.171 7.745H.216L33.08 64.821 65.783 7.745z"/><path d="M37.46 7.745L33 0l-4.46 7.745L33 15.49zM0 79.51h7.012l4.31 7.07 4.31-7.07h7.013v20.116h-6.696v-9.972l-4.626 7.156h-.115L6.58 89.654v9.972H0V79.51zm24.283 12.328v-.057c0-4.426 3.678-8.22 8.85-8.22 5.145 0 8.795 3.737 8.795 8.162v.058c0 4.425-3.679 8.219-8.851 8.219-5.145 0-8.794-3.736-8.794-8.162zm11.38 0v-.057c0-1.552-1.15-2.788-2.586-2.788-1.466 0-2.53 1.236-2.53 2.73v.058c0 1.552 1.15 2.787 2.587 2.787 1.466 0 2.529-1.235 2.529-2.73zm7.27.058v-.058c0-4.971 2.989-8.276 6.696-8.276 2.385 0 3.707 1.034 4.713 2.155v-7.07h6.523v20.979h-6.523V97.7c-1.064 1.15-2.27 2.299-4.656 2.299-3.793 0-6.753-3.305-6.753-8.104zm11.552-.086v-.058c0-1.552-1.12-2.816-2.615-2.816-1.494 0-2.615 1.235-2.615 2.816v.058c0 1.58 1.12 2.816 2.615 2.816 1.494 0 2.615-1.236 2.615-2.816zm7.845.057v-.058c0-4.684 3.363-8.247 8.076-8.247 5.575 0 8.16 3.88 8.16 8.65 0 .345 0 .747-.028 1.092H68.452c.46 1.38 1.551 2.098 2.96 2.098 1.178 0 2.155-.546 3.19-1.61l3.505 2.788c-1.551 2.012-3.764 3.42-7.155 3.42-5.144 0-8.622-3.248-8.622-8.133zm10.29-1.437c-.144-1.494-1.035-2.356-2.185-2.356-1.092 0-1.868.919-2.069 2.356h4.254zm7.385-6.495h6.523v3.162c.891-2.127 2.328-3.507 4.914-3.391v6.925h-.69c-2.758 0-4.224 1.523-4.224 5v3.995h-6.523v-15.69zm12.558 0h6.523v2.184c1.006-1.293 2.587-2.557 4.8-2.557 3.304 0 5.374 2.184 5.374 5.718v10.346h-6.524v-8.248c0-1.35-.805-2.126-1.782-2.126s-1.868.776-1.868 2.126v8.248h-6.523v-15.69z"/></g></svg>